<?xml version="1.0" standalone="no"?>
<!DOCTYPE svg PUBLIC "-//W3C//DTD SVG 20010904//EN" "http://www.w3.org/TR/2001/REC-SVG-20010904/DTD/svg10.dtd">
<svg
	version="1.0"
	xmlns="http://www.w3.org/2000/svg"
	width="701.000000pt"
	height="720.000000pt"
	viewBox="0 0 701.000000 720.000000"
	preserveAspectRatio="xMidYMid meet"
>
	<g transform="translate(0.000000,720.000000) scale(0.100000,-0.100000)" fill="#2185FF" stroke="none">
		<path
			d="M3195 7034 c-249 -24 -375 -45 -565 -94 -19 -5 -64 -16 -100 -25
-188 -49 -563 -214 -750 -331 -120 -74 -263 -171 -285 -191 -11 -10 -40 -33
-65 -50 -79 -54 -292 -246 -375 -339 -44 -49 -88 -98 -98 -109 -53 -57 -226
-296 -296 -408 -82 -131 -173 -304 -231 -437 -53 -121 -146 -398 -169 -505
-12 -55 -31 -137 -42 -182 -10 -45 -19 -94 -19 -110 1 -55 20 4 51 155 75 364
261 803 472 1110 145 212 233 319 407 492 124 124 232 217 366 315 60 43 111
83 112 87 2 4 8 8 14 8 5 0 29 14 53 30 24 17 46 30 49 30 4 0 41 21 84 48
311 192 839 368 1232 411 246 27 602 23 805 -9 206 -32 269 -44 387 -75 145
-37 334 -100 421 -140 31 -14 59 -25 64 -25 4 0 64 -28 133 -63 587 -297 1072
-764 1395 -1342 180 -322 323 -748 355 -1060 5 -49 16 -151 25 -225 26 -234
19 -391 -35 -813 -26 -206 -126 -536 -237 -782 -51 -112 -143 -280 -218 -398
-46 -71 -170 -245 -185 -257 -3 -3 -21 -25 -40 -50 -42 -55 -338 -355 -384
-390 -18 -14 -78 -59 -132 -101 -100 -76 -308 -219 -320 -219 -3 0 -18 -9 -34
-20 -35 -25 -313 -164 -371 -186 -260 -97 -557 -179 -734 -203 -201 -27 -262
-31 -461 -31 -277 0 -455 17 -659 62 -255 56 -307 72 -570 168 -27 10 -97 41
-155 68 -558 262 -1018 666 -1372 1207 -79 121 -173 286 -212 375 -16 36 -43
97 -61 135 -73 162 -207 638 -251 895 -31 186 -50 155 -40 -69 8 -213 31 -378
78 -571 23 -95 113 -360 160 -469 302 -708 882 -1308 1600 -1655 326 -158 584
-239 953 -301 87 -15 344 -32 493 -34 598 -7 1148 141 1686 454 175 101 430
281 531 375 28 26 72 67 99 91 86 77 268 280 362 404 355 467 564 968 661
1584 13 84 16 177 16 446 -1 319 -2 349 -27 494 -14 85 -32 179 -40 210 -9 31
-22 88 -31 126 -23 98 -104 339 -160 475 -145 357 -395 728 -690 1025 -160
162 -257 250 -348 315 -27 19 -63 47 -80 61 -49 39 -223 152 -307 198 -264
146 -613 281 -880 340 -25 5 -65 14 -90 20 -285 63 -646 84 -945 55z"
		/>
		<path
			d="M3350 6807 c-3 -3 -59 -10 -125 -16 -268 -23 -387 -45 -605 -109
-144 -43 -173 -53 -343 -126 -293 -125 -602 -320 -831 -525 -126 -112 -314
-312 -392 -415 -129 -173 -177 -246 -266 -406 -128 -230 -220 -461 -291 -731
-72 -270 -109 -766 -77 -1024 5 -44 17 -141 26 -215 33 -288 151 -641 316
-943 80 -148 235 -381 321 -483 313 -373 670 -650 1106 -859 62 -30 118 -55
123 -55 5 0 25 -8 46 -19 123 -62 492 -161 707 -190 525 -71 1011 -13 1530
182 72 27 170 76 153 77 -9 0 -36 -10 -60 -21 -64 -32 -111 -50 -178 -70 -25
-7 -49 -16 -54 -21 -6 -4 -19 -8 -31 -8 -12 0 -25 -4 -31 -8 -5 -5 -34 -14
-64 -21 -30 -6 -74 -16 -97 -21 -24 -6 -62 -14 -85 -20 -168 -39 -292 -54
-518 -65 -199 -10 -546 18 -733 60 -37 8 -97 22 -135 30 -60 13 -205 55 -257
75 -11 4 -38 13 -60 20 -22 7 -74 28 -115 47 -41 19 -93 42 -115 51 -21 9 -71
34 -110 55 -38 22 -99 55 -135 75 -59 33 -124 77 -280 187 -30 22 -57 42 -60
45 -3 3 -17 15 -31 26 -138 105 -361 330 -500 504 -186 233 -384 599 -483 895
-50 148 -112 424 -137 605 -18 129 -18 594 -1 725 31 236 120 584 187 730 7
17 22 53 33 80 28 69 88 193 146 300 45 81 200 323 216 335 3 3 17 21 30 40
13 19 31 42 40 50 8 8 29 33 45 55 69 93 249 273 375 375 30 25 57 47 60 50 3
3 21 17 40 30 19 13 37 27 40 30 3 3 21 17 40 30 19 14 43 32 53 41 9 9 30 22
45 30 15 7 52 30 82 50 172 113 562 285 735 324 39 9 114 27 168 40 133 33
424 72 587 79 237 10 613 -25 805 -75 44 -11 98 -24 120 -29 188 -40 581 -209
746 -321 32 -21 61 -39 64 -39 32 0 296 -229 416 -361 167 -184 293 -354 407
-549 228 -392 348 -757 404 -1230 16 -132 15 -540 -1 -680 -25 -217 -79 -484
-140 -688 -40 -135 -49 -202 -28 -202 17 0 79 84 114 155 28 55 109 291 128
373 67 283 79 396 79 697 0 304 -14 420 -84 715 -61 254 -208 602 -354 839
-72 116 -192 275 -305 405 -102 118 -366 359 -503 460 -161 118 -468 286 -643
352 -132 50 -283 102 -312 107 -15 2 -54 12 -86 21 -106 29 -298 61 -467 77
-137 12 -404 23 -410 16z"
		/>
		<path
			d="M2384 5466 c-18 -14 -19 -36 -24 -713 l-5 -698 -135 -5 -135 -5 -3
-34 c-5 -52 15 -90 52 -96 17 -3 681 -4 1475 -3 1420 4 1443 4 1458 23 8 12
13 37 11 65 l-3 45 -130 5 -130 5 -6 195 c-4 107 -7 420 -8 696 -1 472 -2 502
-19 517 -17 16 -115 17 -1198 17 -1003 0 -1183 -2 -1200 -14z m2333 -98 c11
-17 4 -1201 -7 -1212 -9 -9 -787 -9 -801 0 -10 6 -13 1183 -3 1208 5 14 50 16
404 16 308 0 401 -3 407 -12z m-2137 -99 c0 -20 -24 -26 -35 -9 -8 13 14 42
26 34 5 -3 9 -14 9 -25z m139 22 c8 -5 11 -16 8 -25 -5 -12 -20 -16 -62 -16
-47 0 -55 3 -55 18 0 10 3 22 7 25 9 10 86 8 102 -2z m-144 -86 c0 -10 -5 -20
-11 -22 -13 -4 -27 24 -18 38 9 15 29 4 29 -16z m320 0 c0 -19 -8 -20 -134
-23 -135 -3 -159 3 -148 32 5 12 29 15 144 13 131 -2 138 -3 138 -22z m-315
-70 c0 -15 -6 -25 -14 -25 -19 0 -28 14 -20 34 10 25 34 19 34 -9z m418 -1 c4
-29 -4 -30 -208 -24 -173 5 -175 5 -178 28 l-3 22 193 -2 c188 -3 193 -4 196
-24z m-418 -64 c0 -26 -15 -33 -30 -15 -10 12 -10 18 0 30 15 18 30 11 30 -15z
m317 5 c3 -9 2 -19 -2 -23 -11 -11 -274 -12 -281 -1 -3 6 -3 16 0 24 8 23 274
22 283 0z m-317 -74 c0 -11 -5 -23 -11 -27 -15 -9 -33 12 -26 30 9 23 37 20
37 -3z m320 -6 l0 -26 -142 3 c-140 3 -143 4 -146 26 -3 22 -3 22 142 22 l146
0 0 -25z m-320 -66 c0 -20 -24 -26 -35 -9 -8 13 14 42 26 34 5 -3 9 -14 9 -25z
m149 8 c17 -21 3 -27 -61 -27 -51 0 -58 2 -58 20 0 18 7 20 54 20 33 0 58 -5
65 -13z m71 -62 c10 -12 10 -18 0 -29 -9 -12 -31 -14 -98 -11 -79 3 -87 5 -90
24 -3 18 3 20 60 24 35 2 75 4 89 5 15 1 32 -5 39 -13z m-220 -14 c0 -11 -4
-22 -9 -25 -12 -8 -34 21 -26 34 11 17 35 11 35 -9z m0 -72 c0 -20 -24 -26
-35 -9 -8 13 14 42 26 34 5 -3 9 -14 9 -25z m145 1 c0 -11 -14 -16 -57 -18
-51 -3 -58 -1 -58 16 0 27 3 28 62 22 38 -4 53 -9 53 -20z m433 24 c13 -4 22
-14 22 -25 0 -18 -11 -19 -215 -19 -202 0 -215 1 -215 18 0 10 3 22 7 25 8 9
370 9 401 1z m-581 -98 c-4 -9 -11 -16 -16 -16 -15 0 -23 33 -9 41 17 11 32
-5 25 -25z m153 8 c0 -20 -32 -30 -80 -26 -30 3 -40 9 -40 21 0 25 3 26 64 23
41 -3 56 -8 56 -18z m681 9 c8 -8 10 -16 3 -23 -7 -7 -505 -15 -651 -10 -20 0
-15 38 4 42 10 2 156 3 325 3 232 0 310 -3 319 -12z m-834 -69 c8 -20 -13 -42
-27 -28 -12 12 -3 44 11 44 5 0 12 -7 16 -16z m143 1 c20 -24 2 -35 -56 -35
-46 0 -54 3 -54 18 0 10 3 22 7 25 12 13 90 7 103 -8z m946 8 c8 -3 14 -14 14
-24 0 -18 -15 -19 -459 -19 -310 0 -462 3 -466 10 -4 6 -4 17 -1 25 4 12 73
15 452 14 245 0 452 -3 460 -6z m156 -11 c19 -19 -3 -32 -58 -32 -46 0 -54 3
-54 18 0 10 3 22 8 26 10 11 91 1 104 -12z m-1246 -87 c-5 -14 -9 -15 -21 -5
-12 10 -13 16 -4 27 15 18 34 1 25 -22z m963 20 c2 -2 1 -11 -2 -20 -6 -13
-61 -15 -467 -15 -439 0 -460 1 -460 18 0 10 2 21 5 23 5 6 918 -1 924 -6z
m-959 -74 c0 -24 -18 -37 -31 -24 -13 13 -1 43 17 43 8 0 14 -9 14 -19z m145
9 c14 -23 -17 -41 -64 -38 -39 3 -46 6 -49 26 -3 20 0 22 52 22 30 0 58 -5 61
-10z m810 -15 c0 -20 -7 -20 -390 -20 l-390 0 -3 23 -3 22 393 -2 c385 -3 393
-3 393 -23z m-959 -60 c3 -8 3 -19 -1 -25 -10 -16 -35 7 -28 26 7 18 22 18 29
-1z m599 -10 c0 -20 -6 -20 -279 -17 -154 1 -282 4 -284 7 -2 2 -2 11 2 20 5
13 39 15 283 13 270 -3 278 -4 278 -23z m-595 -64 c0 -11 -5 -23 -11 -27 -15
-9 -33 12 -26 30 9 23 37 20 37 -3z m508 -3 l-3 -23 -235 0 -235 0 -3 23 -3
22 241 0 241 0 -3 -22z m-508 -68 c0 -21 -24 -28 -35 -10 -8 14 3 30 21 30 8
0 14 -9 14 -20z m254 14 c9 -3 16 -12 16 -20 0 -11 -24 -14 -120 -14 -93 0
-120 3 -120 13 0 8 3 17 7 20 8 9 196 9 217 1z m-254 -89 c0 -29 -15 -33 -29
-6 -11 20 -5 31 16 31 7 0 13 -11 13 -25z m225 0 c0 -19 -7 -20 -95 -20 -91 0
-95 1 -98 23 -3 23 -3 23 95 20 90 -3 98 -5 98 -23z m932 -238 c7 -4 10 -14 6
-22 -4 -12 -33 -15 -159 -15 -133 0 -156 2 -161 16 -3 9 -1 19 5 23 15 9 294
7 309 -2z"
		/>
		<path d="M4080 5220 l0 -60 228 2 227 3 0 55 0 55 -227 3 -228 2 0 -60z" />
		<path
			d="M4084 5047 c-2 -7 -3 -67 -2 -133 l3 -119 218 0 c183 0 219 2 227 15
11 16 14 209 4 234 -5 14 -35 16 -225 16 -172 0 -221 -3 -225 -13z"
		/>
		<path
			d="M4087 4723 c-4 -3 -7 -15 -7 -25 0 -16 10 -18 109 -18 83 0 110 3
114 14 11 27 -17 36 -113 36 -53 0 -100 -3 -103 -7z"
		/>
		<path
			d="M4080 4600 c0 -19 6 -20 231 -20 214 0 230 1 227 18 -3 15 -23 17
-231 20 -222 2 -227 2 -227 -18z"
		/>
		<path
			d="M4080 4490 c0 -20 4 -20 228 -18 194 3 227 5 227 18 0 13 -33 15
-227 18 -224 2 -228 2 -228 -18z"
		/>
		<path
			d="M4118 4403 c-30 -3 -38 -9 -38 -24 0 -18 9 -19 230 -19 217 0 230 1
230 18 0 17 -13 20 -127 25 -130 7 -228 7 -295 0z"
		/>
		<path
			d="M186 4194 c-4 -9 -4 -19 -1 -22 2 -3 7 3 11 12 4 9 4 19 1 22 -2 3
-7 -3 -11 -12z"
		/>
		<path
			d="M1682 2832 c-7 -5 -26 -74 -43 -153 -92 -442 -109 -524 -109 -541 0
-17 15 -18 230 -18 l230 0 11 27 c18 48 8 53 -99 53 -55 0 -103 5 -109 11 -13
13 1 98 58 359 23 107 43 211 43 230 l1 35 -100 3 c-55 1 -106 -2 -113 -6z"
		/>
		<path
			d="M3776 2824 c-19 -18 -15 -5 -66 -254 -22 -107 -52 -250 -67 -318 -14
-67 -23 -126 -19 -130 4 -4 99 -7 209 -6 232 1 276 12 370 88 136 109 188 385
101 534 -40 68 -86 84 -269 93 -226 11 -242 11 -259 -7z m292 -65 c51 -18 58
-50 39 -192 -22 -159 -41 -230 -80 -295 -38 -62 -61 -80 -113 -84 l-39 -3 1
40 c1 22 16 105 33 185 18 80 39 181 48 225 26 132 41 149 111 124z"
		/>
		<path
			d="M2310 2755 l-74 -75 38 0 c29 0 54 11 110 50 40 28 77 50 83 50 5 0
29 -22 52 -50 36 -42 48 -50 77 -50 19 0 34 3 34 8 0 4 -17 36 -38 72 l-38 65
-85 3 -84 3 -75 -76z"
		/>
		<path
			d="M2272 2595 c-89 -22 -110 -34 -122 -71 -19 -55 -10 -64 65 -64 63 0
67 2 83 30 20 34 50 53 86 53 44 0 57 -20 54 -77 l-3 -51 -40 -2 c-104 -6
-216 -27 -251 -47 -105 -59 -113 -196 -15 -242 59 -28 183 -5 221 41 19 23 38
18 54 -14 13 -25 22 -29 72 -34 70 -7 111 0 119 22 17 43 49 225 53 294 l4 78
-39 38 c-28 28 -52 41 -91 50 -68 14 -182 12 -250 -4z m143 -245 c4 -6 1 -34
-6 -61 -20 -76 -76 -110 -123 -76 -13 10 -17 24 -14 57 3 38 8 48 37 67 35 24
95 31 106 13z"
		/>
		<path
			d="M3126 2590 c-27 -11 -59 -29 -72 -41 -27 -25 -50 -20 -63 14 -5 14
-17 27 -26 31 -30 11 -142 7 -153 -6 -5 -7 -20 -60 -31 -118 -12 -58 -30 -141
-40 -185 -11 -44 -22 -99 -25 -122 l-6 -43 110 0 c60 0 110 3 110 6 0 6 55
278 65 322 14 59 82 82 111 37 16 -25 14 -42 -36 -260 -5 -22 -12 -54 -15 -71
l-6 -32 55 -7 c31 -3 80 -3 110 0 l55 7 11 52 c6 28 22 112 36 187 22 118 23
140 12 175 -23 70 -105 92 -202 54z"
		/>
		<path
			d="M4613 2595 c-101 -27 -159 -70 -197 -144 -19 -35 -30 -131 -22 -185
8 -49 62 -121 105 -138 79 -31 273 -23 363 15 30 13 39 23 48 57 6 23 14 48
17 56 4 11 -11 14 -85 14 l-90 0 -21 -34 c-12 -19 -33 -42 -47 -51 -22 -14
-30 -15 -50 -4 -22 11 -24 19 -24 86 l0 73 160 0 160 0 20 33 c14 22 20 50 20
89 0 50 -4 60 -32 91 -24 25 -47 37 -86 46 -71 15 -175 13 -239 -4z m151 -77
c18 -26 20 -65 6 -102 -9 -24 -14 -26 -75 -26 -73 0 -75 3 -49 66 33 80 86
107 118 62z"
		/>
		<path
			d="M5044 2589 c-4 -6 -2 -34 4 -63 14 -66 28 -151 42 -251 22 -152 21
-148 65 -158 22 -5 73 -6 114 -3 81 7 83 8 123 86 12 25 37 70 54 100 58 103
144 274 144 287 0 10 -13 13 -47 11 l-48 -3 -75 -147 c-79 -156 -96 -181 -104
-157 -4 14 -20 120 -32 213 -12 98 -9 96 -128 96 -66 0 -107 -4 -112 -11z"
		/>
		<path
			d="M6400 1855 c0 -8 2 -15 4 -15 2 0 6 7 10 15 3 8 1 15 -4 15 -6 0 -10
-7 -10 -15z"
		/>
		<path
			d="M6373 1814 c-7 -7 -13 -19 -13 -26 0 -7 7 -2 16 10 18 26 16 37 -3
16z"
		/>
		<path
			d="M6265 1662 c-170 -235 -518 -577 -744 -731 -20 -14 -38 -27 -41 -30
-40 -46 -535 -331 -575 -331 -3 0 -34 -13 -68 -29 -68 -31 -128 -55 -197 -77
-25 -8 -54 -19 -65 -23 -89 -38 -364 -106 -565 -141 -352 -60 -767 -64 -1105
-9 -38 6 -95 14 -125 19 -80 11 -163 29 -287 59 -135 33 -172 43 -203 53 -50
16 -79 24 -130 38 -25 7 -54 16 -65 20 -11 4 -47 16 -80 25 -33 10 -63 20 -67
22 -5 2 -8 -2 -8 -9 0 -27 234 -142 412 -201 197 -66 374 -106 663 -149 122
-18 657 -18 780 1 197 29 391 66 497 95 101 27 351 113 410 140 31 14 59 26
63 26 14 0 326 158 379 192 33 21 65 38 72 38 7 0 14 4 16 8 2 4 59 45 128 91
229 153 406 304 599 509 124 132 297 341 322 389 8 15 18 31 23 34 5 4 7 11 5
16 -2 6 -22 -15 -44 -45z"
		/>
		<path
			d="M5066 1115 c-11 -8 -16 -15 -10 -15 5 0 18 7 28 15 11 8 16 15 10 15
-5 0 -18 -7 -28 -15z"
		/>
		<path
			d="M4996 1075 c-11 -8 -16 -15 -10 -15 5 0 18 7 28 15 11 8 16 15 10 15
-5 0 -18 -7 -28 -15z"
		/>
		<path
			d="M4897 1023 c-4 -3 -35 -19 -70 -34 -34 -16 -53 -28 -42 -28 11 0 49
15 85 34 36 19 58 35 49 35 -9 0 -19 -3 -22 -7z"
		/>
	</g>
</svg>
